<?xml version="1.0" standalone="no"?>
<!DOCTYPE svg PUBLIC "-//W3C//DTD SVG 20010904//EN"
 "http://www.w3.org/TR/2001/REC-SVG-20010904/DTD/svg10.dtd">
<svg version="1.0" xmlns="http://www.w3.org/2000/svg"
 width="500.000000pt" height="500.000000pt" viewBox="0 0 500.000000 500.000000"
 preserveAspectRatio="xMidYMid meet">

<g transform="translate(0.000000,500.000000) scale(0.100000,-0.100000)"
fill="#000000" stroke="none">
<path d="M1326 3538 c4 -7 41 -57 81 -110 l72 -96 -144 -662 c-80 -365 -145
-669 -145 -676 0 -11 36 -14 189 -14 105 0 192 4 195 9 5 7 166 731 166 749 1
21 32 -62 170 -454 83 -236 155 -433 160 -438 4 -4 55 27 112 70 56 42 104 78
106 79 1 1 60 267 131 591 120 545 128 589 112 600 -9 7 -77 89 -151 183 -74
94 -137 168 -140 164 -4 -5 -35 -142 -70 -305 -35 -164 -67 -298 -70 -298 -3
0 -48 139 -101 308 l-96 307 -292 3 c-234 2 -291 0 -285 -10z"/>
<path d="M2339 3522 c6 -9 29 -37 52 -62 22 -25 41 -47 41 -50 0 -3 27 -40 61
-83 l62 -78 85 1 c47 1 90 1 96 1 6 -1 -8 -84 -37 -213 -89 -408 -150 -685
-154 -714 -3 -16 -16 -76 -30 -134 -14 -58 -23 -110 -20 -117 2 -6 0 -13 -4
-15 -5 -2 -11 -20 -15 -40 l-7 -38 193 0 193 0 30 133 c16 72 29 141 31 152 1
11 4 27 7 35 3 8 27 112 52 230 26 118 57 264 71 323 13 59 23 111 22 115 -1
4 1 14 5 22 13 33 37 162 32 170 -3 5 -1 11 4 14 5 3 12 22 15 41 7 35 7 35
60 35 56 0 71 -6 57 -24 -4 -6 -11 -25 -14 -42 -3 -18 -9 -43 -13 -58 l-6 -26
193 0 194 0 34 158 c19 86 35 166 36 177 1 11 5 27 8 35 3 8 8 27 11 43 l6 27
-680 0 c-641 0 -680 -2 -671 -18z m123 -79 c-6 -3 -10 -9 -7 -13 3 -5 0 -12
-7 -16 -7 -4 -10 -4 -6 1 4 4 2 15 -5 23 -8 11 -8 14 0 9 6 -4 15 -2 18 4 4 5
10 7 14 3 3 -4 0 -9 -7 -11z"/>
<path d="M3542 2724 c-1 -7 -22 -34 -47 -62 -24 -27 -41 -52 -38 -56 4 -4 0
-4 -9 -1 -9 4 -19 1 -24 -6 -5 -8 -3 -10 7 -4 11 7 12 6 3 -6 -5 -8 -9 -20 -8
-26 1 -7 2 -17 3 -23 0 -5 6 -10 12 -10 6 0 8 7 5 16 -3 8 -2 12 4 9 34 -21
104 81 97 142 -2 21 -4 33 -5 27z"/>
<path d="M3566 2626 c-3 -14 -29 -49 -57 -80 -28 -31 -48 -56 -43 -56 4 0 -1
-9 -11 -20 -10 -11 -13 -20 -7 -20 6 0 9 -9 7 -21 -4 -20 -3 -20 18 -6 12 9
21 21 19 27 -1 6 2 9 7 6 12 -8 56 38 75 78 17 37 21 101 7 110 -5 3 -12 -5
-15 -18z m-91 -166 c3 -5 1 -10 -4 -10 -6 0 -11 5 -11 10 0 6 2 10 4 10 3 0 8
-4 11 -10z"/>
<path d="M3006 2355 c-30 -80 38 -184 161 -246 26 -13 55 -30 64 -37 13 -10
16 -9 16 3 0 8 -4 15 -9 15 -5 0 -7 4 -3 10 3 5 11 8 18 6 7 -1 9 -1 4 1 -4 3
-4 10 0 16 4 7 -1 6 -10 -2 -10 -8 -21 -11 -24 -7 -4 4 -1 11 6 15 11 7 9 11
-5 19 -18 10 -18 11 3 9 12 0 19 -5 17 -9 -3 -4 -1 -8 5 -8 24 0 18 19 -9 30
-16 7 -32 12 -35 11 -3 -1 -11 3 -18 9 -6 5 -40 30 -75 56 -44 31 -69 58 -81
85 -14 30 -20 36 -25 24z"/>
<path d="M2965 2246 c-15 -80 12 -140 89 -193 66 -47 120 -78 112 -64 -5 7 -1
20 8 30 14 16 14 19 0 40 -9 13 -22 20 -31 17 -8 -3 -12 -2 -8 3 3 5 -9 20
-27 32 -60 41 -90 74 -114 123 l-23 49 -6 -37z"/>
<path d="M3190 2050 c0 -6 7 -10 15 -10 8 0 15 2 15 4 0 2 -7 6 -15 10 -8 3
-15 1 -15 -4z"/>
<path d="M3181 2017 c-9 -9 -6 -16 11 -29 20 -16 21 -17 3 -12 -16 6 -18 5 -7
-7 9 -10 15 -10 24 -1 7 7 8 12 3 12 -6 0 -3 5 5 11 13 9 12 10 -2 5 -10 -3
-20 -1 -23 4 -3 5 3 10 12 12 16 3 16 4 2 10 -9 4 -22 1 -28 -5z"/>
<path d="M1548 1803 c-15 -4 -18 -17 -18 -89 0 -83 0 -84 25 -84 23 0 25 4 25
42 l0 42 31 -42 c32 -44 36 -47 57 -33 9 5 12 30 10 87 -3 71 -5 79 -23 79
-15 0 -21 -8 -25 -34 l-5 -35 -25 37 c-14 20 -27 36 -30 36 -3 -1 -13 -3 -22
-6z"/>
<path d="M1745 1798 c-33 -18 -45 -40 -45 -82 0 -47 6 -58 38 -75 33 -18 88 3
107 39 21 40 19 93 -3 113 -21 19 -67 22 -97 5z m60 -49 c4 -5 4 -21 1 -35 -7
-27 -50 -35 -59 -10 -12 31 41 73 58 45z"/>
<path d="M1978 1758 l-14 -53 -14 44 c-15 45 -29 58 -53 44 -12 -7 -10 -20 11
-86 25 -76 27 -78 56 -75 29 3 32 7 53 82 24 83 23 96 -6 96 -13 0 -22 -14
-33 -52z"/>
<path d="M2073 1803 c-9 -3 -13 -31 -13 -90 0 -74 2 -84 16 -79 9 3 20 6 25 6
5 0 9 38 9 85 0 85 -3 92 -37 78z"/>
<path d="M2498 1803 c-44 -4 -48 -6 -48 -29 0 -20 4 -25 23 -22 20 3 22 -1 25
-58 3 -56 5 -61 22 -57 17 5 20 14 20 64 0 58 4 64 38 60 7 -1 12 9 12 24 0
20 -5 25 -22 23 -13 -1 -44 -3 -70 -5z"/>
<path d="M2666 1795 c-9 -9 -16 -13 -16 -8 0 4 -7 -3 -16 -15 -8 -12 -12 -27
-9 -32 3 -6 1 -10 -4 -10 -18 0 -12 -36 10 -64 22 -28 56 -34 78 -13 11 10 12
9 5 -3 -7 -13 -4 -12 16 1 14 9 31 35 39 58 12 39 12 45 -6 69 -24 32 -73 41
-97 17z m63 -69 c-5 -16 -14 -33 -21 -38 -10 -6 -10 -8 1 -8 8 0 12 -3 9 -6
-4 -3 -16 0 -28 6 -16 9 -25 9 -33 1 -6 -6 -15 -11 -21 -11 -5 0 -2 6 9 13 12
10 16 22 13 40 -3 15 -1 24 3 21 5 -3 9 0 9 6 0 6 15 10 34 8 32 -2 33 -3 25
-32z"/>
<path d="M3328 1758 c-1 -29 -2 -60 -2 -70 0 -15 -2 -15 -23 -1 -19 13 -23 24
-23 64 0 41 -3 49 -19 49 -33 0 -42 -64 -17 -125 13 -30 20 -35 47 -35 52 0
79 38 79 111 0 52 -2 59 -20 59 -17 0 -20 -7 -22 -52z"/>
<path d="M2155 1775 c-34 -33 -35 -107 -3 -129 43 -31 117 -11 102 27 -5 14
-13 17 -35 12 -21 -5 -30 -2 -37 12 -14 26 3 53 33 53 21 0 45 24 45 44 0 3
-18 6 -40 6 -30 0 -47 -7 -65 -25z"/>
<path d="M2801 1713 c-2 -78 -1 -83 18 -83 18 0 21 6 21 40 0 43 13 52 30 20
6 -11 15 -18 20 -15 6 3 7 0 4 -8 -7 -20 18 -38 36 -27 8 6 12 10 8 10 -4 0
-3 14 2 31 14 48 1 119 -21 119 -13 0 -19 -9 -21 -37 l-3 -38 -23 37 c-17 28
-30 37 -46 36 -22 -2 -23 -6 -25 -85z m66 32 c0 -8 -4 -12 -9 -9 -5 3 -6 10
-3 15 9 13 12 11 12 -6z m-39 -80 c-3 -3 -9 2 -12 12 -6 14 -5 15 5 6 7 -7 10
-15 7 -18z"/>
<path d="M2968 1750 c-1 -28 2 -52 7 -54 6 -3 5 -5 -1 -5 -6 -1 -9 -12 -6 -26
4 -22 9 -25 46 -25 42 0 66 13 66 36 0 9 -11 11 -35 7 l-35 -6 0 62 c0 53 -2
61 -19 61 -16 0 -20 -9 -23 -50z"/>
<path d="M3113 1793 c-9 -3 -13 -30 -13 -84 l0 -79 33 0 c51 0 77 11 77 31 0
16 -5 17 -32 12 -18 -3 -36 -11 -40 -17 -12 -17 -9 3 2 25 7 12 21 19 40 19
23 0 30 5 30 20 0 16 -6 19 -32 17 -18 -1 -35 3 -38 8 -3 6 12 11 33 13 29 3
37 7 37 23 0 16 -7 19 -42 18 -24 0 -49 -3 -55 -6z"/>
</g>
</svg>
